<svg xmlns="http://www.w3.org/2000/svg" viewBox="0 0 230 230"><g fill="none" stroke="gray" stroke-width="2"><path d="M191.5 95.44a.26.26 0 0 0-.26-.26h-7.22a.26.26 0 0 0-.26.26v38.3a.26.26 0 0 0 .26.26h7.22a.26.26 0 0 0 .26-.26v-38.3M50.91 112.65c2.47-2.11 3.45-5.17 2.99-8.45-1.64-11.76-16.98-9.08-26.69-8.89q-.46 0-.46.46v37.71a.51.5 90 0 0 .5.51c6.91.04 18.05 1.15 23.46-1.63 7.41-3.79 7.8-14.71.27-19a.44.43 39.6 0 1-.07-.71m50.09 6.6h6q.53 0 .78.46l7.62 13.79q.25.47.78.47l6.79.09q.63.01.31-.54l-8.88-15.44q-.37-.65.27-1.04 7.24-4.36 5.6-12.85c-2.12-10.93-18.84-9.03-26.53-8.91q-.5.01-.5.5l-.02 37.58q0 .64.64.64h5.89q.75 0 .75-.75v-13.5q0-.5.5-.5m-31.99 3.27 17.47-.08q.57 0 .62-.56c2.28-23.62-30.62-20.48-26.2 2.11 2.1 10.7 15.34 13.1 24.05 8.18q.4-.22.23-.65l-1.73-4.49a.62.62 0 0 0-.87-.32c-4.81 2.58-12.36 2.71-13.92-3.75q-.1-.43.35-.44m64.73.06 17.72-.32q.51-.01.53-.53c.19-8.58-3.36-16.69-13.42-16q-11.02.76-12.81 11.14c-2.61 15.14 12.01 22.07 24.04 15.32q.46-.26.24-.75l-1.97-4.48a.51.5-24.9 0 0-.69-.25c-5.05 2.53-12.1 2.73-13.92-3.75q-.11-.37.28-.38m38.51 8.17v2.62q0 .63.62.63h6.11q.5 0 .5-.5.06-8.88 0-17.77c-.1-13.06-21.78-12.97-23.66-1.56q-.09.58.49.58H162q.51 0 .75-.45c2.56-4.77 10.56-3.38 9.35 2.68q-.08.44-.53.47c-4.17.24-9.31.04-13.12 2.11-11.42 6.2 3.11 22.6 13.35 11.03q.45-.52.45.16m30.577-4.032a.36.36 0 0 0-.357-.363l-6.56-.07a.36.36 0 0 0-.363.357l-.074 7.02a.36.36 0 0 0 .357.363l6.56.07a.36.36 0 0 0 .363-.357l.074-7.02" vector-effect="non-scaling-stroke"/><path d="m34.27 101.69-.04 8.94a.27.27 0 0 0 .27.27l6.47.02a5.24 4.59.2 0 0 5.26-4.57v-.3a5.24 4.59.2 0 0-5.22-4.61l-6.47-.02a.27.27 0 0 0-.27.27m-.02 15.58v10.3a.21.21 0 0 0 .21.21h8.51a5.72 5.2 0 0 0 5.72-5.2v-.32a5.72 5.2 0 0 0-5.72-5.2h-8.51a.21.21 0 0 0-.21.21m66.24-15.61.02 11.34a.23.23 0 0 0 .23.23l5.07-.01a6.94 5.38-.1 0 0 6.93-5.39v-1.04a6.94 5.38-.1 0 0-6.95-5.37l-5.07.01a.23.23 0 0 0-.23.23m-31.53 15.59h10.76a.11.11 0 0 0 .11-.11v-.06a5.35 5.03 0 0 0-5.35-5.03h-.28a5.35 5.03 0 0 0-5.35 5.03v.06a.11.11 0 0 0 .11.11m75.7-.27c-1.07-6.51-8.84-6.59-11.09-.54q-.31.83.58.83l10.28-.02q.27-.01.23-.27m17.65 7.57c-2.62 5.7 10.99 6.63 9.75-1.99q-.07-.47-.54-.44c-2.47.12-7.98-.25-9.21 2.43" vector-effect="non-scaling-stroke"/></g><path d="M60.08 0h108.97c11.96-.05 24.63 1.44 34.88 7.28q19.67 11.19 24.65 34.9.99 4.72 1.42 18.89v108.98q-.57 12.89-1.21 16.44-4.79 26.19-27.48 37.64c-10.44 5.27-21.29 5.25-32.63 5.87H60.95q-10.68-.32-17.88-1.35c-21.94-3.16-38.24-20.52-41.81-42.17Q.39 181.22 0 169.43V60.69Q.47 47.16 1.27 43 6.1 18.06 27.01 6.76C36.84 1.45 48.74.04 60.08 0M191.5 95.44a.26.26 0 0 0-.26-.26h-7.22a.26.26 0 0 0-.26.26v38.3a.26.26 0 0 0 .26.26h7.22a.26.26 0 0 0 .26-.26zM50.91 112.65c2.47-2.11 3.45-5.17 2.99-8.45-1.64-11.76-16.98-9.08-26.69-8.89q-.46 0-.46.46v37.71a.51.5 90 0 0 .5.51c6.91.04 18.05 1.15 23.46-1.63 7.41-3.79 7.8-14.71.27-19a.44.43 39.6 0 1-.07-.71m50.09 6.6h6q.53 0 .78.46l7.62 13.79q.25.47.78.47l6.79.09q.63.01.31-.54l-8.88-15.44q-.37-.65.27-1.04 7.24-4.36 5.6-12.85c-2.12-10.93-18.84-9.03-26.53-8.91q-.5.01-.5.5l-.02 37.58q0 .64.64.64h5.89q.75 0 .75-.75v-13.5q0-.5.5-.5m-31.99 3.27 17.47-.08q.57 0 .62-.56c2.28-23.62-30.62-20.48-26.2 2.11 2.1 10.7 15.34 13.1 24.05 8.18q.4-.22.23-.65l-1.73-4.49a.62.62 0 0 0-.87-.32c-4.81 2.58-12.36 2.71-13.92-3.75q-.1-.43.35-.44m64.73.06 17.72-.32q.51-.01.53-.53c.19-8.58-3.36-16.69-13.42-16q-11.02.76-12.81 11.14c-2.61 15.14 12.01 22.07 24.04 15.32q.46-.26.24-.75l-1.97-4.48a.51.5-24.9 0 0-.69-.25c-5.05 2.53-12.1 2.73-13.92-3.75q-.11-.37.28-.38m38.51 8.17v2.62q0 .63.62.63h6.11q.5 0 .5-.5.06-8.88 0-17.77c-.1-13.06-21.78-12.97-23.66-1.56q-.09.58.49.58H162q.51 0 .75-.45c2.56-4.77 10.56-3.38 9.35 2.68q-.08.44-.53.47c-4.17.24-9.31.04-13.12 2.11-11.42 6.2 3.11 22.6 13.35 11.03q.45-.52.45.16m30.577-4.032a.36.36 0 0 0-.357-.363l-6.56-.07a.36.36 0 0 0-.363.357l-.074 7.02a.36.36 0 0 0 .357.363l6.56.07a.36.36 0 0 0 .363-.357z"/><rect width="7.74" height="38.82" x="183.76" y="95.18" fill="#fff" rx=".26"/><path fill="#fff" d="M50.91 112.65a.44.43 39.6 0 0 .07.71c7.53 4.29 7.14 15.21-.27 19-5.41 2.78-16.55 1.67-23.46 1.63a.51.5 90 0 1-.5-.51V95.77q0-.46.46-.46c9.71-.19 25.05-2.87 26.69 8.89.46 3.28-.52 6.34-2.99 8.45m-16.64-10.96-.04 8.94a.27.27 0 0 0 .27.27l6.47.02a5.24 4.59.2 0 0 5.26-4.57v-.3a5.24 4.59.2 0 0-5.22-4.61l-6.47-.02a.27.27 0 0 0-.27.27m-.02 15.58v10.3a.21.21 0 0 0 .21.21h8.51a5.72 5.2 0 0 0 5.72-5.2v-.32a5.72 5.2 0 0 0-5.72-5.2h-8.51a.21.21 0 0 0-.21.21m66.25 2.48v13.5q0 .75-.75.75h-5.89q-.64 0-.64-.64l.02-37.58q0-.49.5-.5c7.69-.12 24.41-2.02 26.53 8.91q1.64 8.49-5.6 12.85-.64.39-.27 1.04l8.88 15.44q.32.55-.31.54l-6.79-.09q-.53 0-.78-.47l-7.62-13.79q-.25-.46-.78-.46h-6q-.5 0-.5.5m-.01-18.09.02 11.34a.23.23 0 0 0 .23.23l5.07-.01a6.94 5.38-.1 0 0 6.93-5.39v-1.04a6.94 5.38-.1 0 0-6.95-5.37l-5.07.01a.23.23 0 0 0-.23.23"/><path d="M100.49 101.66a.23.23 0 0 1 .23-.23l5.07-.01a6.94 5.38-.1 0 1 6.95 5.37v1.04a6.94 5.38-.1 0 1-6.93 5.39l-5.07.01a.23.23 0 0 1-.23-.23zm-66.22.03a.27.27 0 0 1 .27-.27l6.47.02a5.24 4.59.2 0 1 5.22 4.61v.3a5.24 4.59.2 0 1-5.26 4.57l-6.47-.02a.27.27 0 0 1-.27-.27z"/><path fill="#fff" d="M68.66 122.96c1.56 6.46 9.11 6.33 13.92 3.75a.62.62 0 0 1 .87.32l1.73 4.49q.17.43-.23.65c-8.71 4.92-21.95 2.52-24.05-8.18-4.42-22.59 28.48-25.73 26.2-2.11q-.05.56-.62.56l-17.47.08q-.45.01-.35.44m.3-5.71h10.76a.11.11 0 0 0 .11-.11v-.06a5.35 5.03 0 0 0-5.35-5.03h-.28a5.35 5.03 0 0 0-5.35 5.03v.06a.11.11 0 0 0 .11.11m64.5 5.71c1.82 6.48 8.87 6.28 13.92 3.75a.51.5-24.9 0 1 .69.25l1.97 4.48q.22.49-.24.75c-12.03 6.75-26.65-.18-24.04-15.32q1.79-10.38 12.81-11.14c10.06-.69 13.61 7.42 13.42 16q-.02.52-.53.53l-17.72.32q-.39.01-.28.38m11.2-5.98c-1.07-6.51-8.84-6.59-11.09-.54q-.31.83.58.83l10.28-.02q.27-.01.23-.27m27.14 13.61c-10.24 11.57-24.77-4.83-13.35-11.03 3.81-2.07 8.95-1.87 13.12-2.11q.45-.03.53-.47c1.21-6.06-6.79-7.45-9.35-2.68q-.24.45-.75.45h-5.69q-.58 0-.49-.58c1.88-11.41 23.56-11.5 23.66 1.56q.06 8.89 0 17.77 0 .5-.5.5h-6.11q-.62 0-.62-.63v-2.62q0-.68-.45-.16m-9.49-6.04c-2.62 5.7 10.99 6.63 9.75-1.99q-.07-.47-.54-.44c-2.47.12-7.98-.25-9.21 2.43"/><path d="M68.96 117.25a.11.11 0 0 1-.11-.11v-.06a5.35 5.03 0 0 1 5.35-5.03h.28a5.35 5.03 0 0 1 5.35 5.03v.06a.11.11 0 0 1-.11.11zm64.61-.81c2.25-6.05 10.02-5.97 11.09.54q.04.26-.23.27l-10.28.02q-.89 0-.58-.83m-99.32.83a.21.21 0 0 1 .21-.21h8.51a5.72 5.2 0 0 1 5.72 5.2v.32a5.72 5.2 0 0 1-5.72 5.2h-8.51a.21.21 0 0 1-.21-.21zm137.81 5.29c1.24 8.62-12.37 7.69-9.75 1.99 1.23-2.68 6.74-2.31 9.21-2.43q.47-.03.54.44"/><rect width="7.28" height="7.74" x="-3.64" y="-3.87" fill="#fff" rx=".36" transform="rotate(.6 -12332.54 19082.345)"/></svg>