<?xml version="1.0" encoding="UTF-8" standalone="no"?>
<!-- Created with Inkscape (http://www.inkscape.org/) -->

<svg
   xmlns:svg="http://www.w3.org/2000/svg"
   xmlns="http://www.w3.org/2000/svg"
   version="1.1"
   width="256"
   height="256"
   id="svg2816">
  <defs
     id="defs2820" />
  <path
     d="m 81.522455,251.61251 c -0.09088,-0.0908 -0.165221,-1.76195 -0.165221,-3.71351 l 0,-3.54828 -2.788021,-2.08313 c -2.745415,-2.0513 -2.8524,-2.10408 -7.00102,-3.45381 -2.317149,-0.75387 -7.180569,-2.2702 -10.807593,-3.36963 -8.310792,-2.51917 -11.458352,-3.96231 -14.202703,-6.51189 -0.556166,-0.51669 -1.081651,-0.94082 -1.167769,-0.94252 -0.345492,-0.007 -12.083042,-12.44446 -12.905421,-13.67517 C 31.77199,213.24793 21.440667,195.62714 19.695194,192.50116 19.443158,192.04979 16.524538,184.8914 13.20935,176.59365 7.4585763,162.19962 7.1244359,161.27212 5.9331717,156.39602 l -0.9868051,-5.2417 -0.3402161,-27.7551 0.4450992,-27.624216 1.3561828,-6.327197 c 1.0338711,-3.335979 1.9773855,-6.511694 2.096737,-7.057148 0.1193271,-0.545454 0.553787,-1.995424 0.965447,-3.222152 0.41166,-1.226729 1.1564695,-3.5129 1.6551155,-5.080386 0.498671,-1.567481 1.20021,-3.574855 1.559009,-4.460825 0.738193,-1.822803 9.873446,-16.61922 11.781415,-19.082427 1.730083,-2.233552 10.412488,-11.61268 12.891295,-13.925772 2.103255,-1.962662 14.980944,-10.902595 17.359729,-12.05147 0.681515,-0.329144 1.808964,-0.976065 2.505448,-1.437594 1.344197,-0.890745 16.271189,-8.023955 16.790952,-8.023955 0.168546,0 0.412406,-0.104446 0.541891,-0.232097 0.27873,-0.274789 17.594194,-6.4694604 18.350258,-6.5648675 0.285612,-0.036058 0.63594,-0.1376106 0.77846,-0.2256905 0.30277,-0.1871231 15.388411,-3.3769208 16.669411,-3.5246849 0.47707,-0.055001 1.53651,-0.2041958 2.35433,-0.3314763 0.84173,-0.1310082 12.42576,-0.2405034 26.69634,-0.2523379 l 25.20941,-0.020892 9.11419,1.3621704 c 5.01279,0.749187 9.79968,1.593769 10.6375,1.8768535 0.83784,0.2830725 1.68924,0.5390283 1.89199,0.5687882 0.35815,0.052564 6.1039,3.120618 7.87251,4.203687 0.48358,0.296131 3.32736,2.345124 6.31951,4.553314 4.57094,3.373327 5.9188,4.521781 8.4348,7.186889 2.73937,2.901712 11.03099,12.27724 12.90713,14.594389 0.72016,0.889435 8.02092,10.864844 9.87871,13.497768 1.15575,1.637988 11.71063,18.945407 12.53571,20.555487 1.0788,2.105249 6.67563,16.032872 7.17033,17.843305 0.95412,3.491667 1.0359,7.138485 0.93641,41.758297 -0.10479,36.44802 0.0185,33.76184 -1.66665,36.26938 -0.49026,0.72944 -1.51271,2.29072 -2.27214,3.46954 -1.64046,2.54641 -10.94223,15.41305 -12.00433,16.60498 -0.40748,0.45726 -3.31239,2.98854 -6.45537,5.62506 l -5.71451,4.79367 -1.26024,2.42921 c -0.69311,1.33606 -2.28843,5.27299 -3.54514,8.74872 -2.3734,6.56424 -3.0569,7.95553 -5.53943,11.27598 -0.81524,1.09042 -2.83626,4.04572 -4.49114,6.56733 -2.22672,3.39298 -3.42358,4.96081 -4.60438,6.03153 -2.12438,1.92634 -18.07959,13.26923 -19.81059,14.08375 -0.78652,0.3701 -4.40286,1.3372 -8.54991,2.28647 l -7.1869,1.64508 -43.76154,-0.004 c -24.06885,-0.002 -43.835894,-0.0783 -43.926745,-0.16919 l 0,2e-5 z m 90.546225,-16.26973 6.57527,-1.54378 7.55067,-5.36436 c 4.15289,-2.95039 7.78897,-5.6243 8.08025,-5.94201 0.70372,-0.76762 7.70055,-11.54059 8.8254,-13.58841 0.48667,-0.88597 1.68361,-3.83355 2.65989,-6.5502 0.9763,-2.71664 2.09865,-5.61618 2.49409,-6.44341 1.71671,-3.59092 3.29123,-6.27688 4.26723,-7.2794 0.57733,-0.59301 3.60034,-3.21635 6.71776,-5.82963 l 5.66802,-4.75141 4.13853,-5.69995 c 2.2762,-3.13497 4.93601,-6.88436 5.91068,-8.332 l 1.77214,-2.63204 0.38824,-3.93528 c 0.21353,-2.1644 0.45351,-6.89058 0.53329,-10.50261 l 0.14507,-6.56733 -0.95994,0.88104 c -3.10761,2.85216 -6.0292,5.4293 -6.78381,5.98398 -0.47706,0.35069 -2.76323,1.39026 -5.08038,2.31016 -2.31715,0.9199 -5.18417,2.1073 -6.37118,2.63867 -1.57162,0.70356 -2.95237,1.09719 -5.08038,1.44833 -3.57513,0.58995 -6.51668,1.1538 -6.63397,1.27162 -0.0481,0.0483 -0.1399,4.93895 -0.20403,10.86814 -0.1195,11.04689 -0.33402,14.12836 -1.1645,16.72809 -0.26125,0.81782 -1.2158,4.27496 -2.1212,7.68254 -0.90543,3.40757 -1.73196,6.30712 -1.83677,6.44342 -0.1048,0.1363 -0.33334,0.69391 -0.50786,1.23912 -0.33865,1.05789 -2.79536,5.52169 -3.74824,6.81054 -0.33789,0.45703 -2.05037,1.64805 -4.17191,2.90157 -1.97932,1.16948 -4.13066,2.503 -4.78074,2.96336 -1.81093,1.28241 -11.25215,5.99746 -13.06788,6.52622 -0.88596,0.25802 -4.92859,1.268 -8.98361,2.24441 l -7.37275,1.7753 0,7.77388 0,7.77387 3.03584,0.0779 c 1.66971,0.0429 3.14736,0.0971 3.28367,0.12066 0.1363,0.0235 3.20671,-0.65199 6.82311,-1.50106 l 0,6e-5 z m -28.5115,-41.61776 c -0.002,-23.61451 -0.0857,-43.05536 -0.18586,-43.20192 -0.10014,-0.14655 -2.13369,-1.59503 -4.51899,-3.21885 -4.13977,-2.81817 -4.51715,-3.01712 -8.30209,-4.3766 l -3.96518,-1.42422 -14.43574,-0.004 -14.435723,-0.004 0,47.45599 0,47.456 12.700963,0.0665 c 6.98553,0.0366 17.30119,0.0934 22.9237,0.12616 l 10.22272,0.0596 -0.004,-42.93546 2e-4,8e-4 z m -61.578058,10.26635 c -0.137616,-0.1376 -13.350192,-1.8131 -18.616199,-2.36073 -3.069272,-0.31919 -3.404776,-0.40986 -6.071681,-1.64074 -3.477835,-1.60516 -3.88994,-1.85165 -7.283712,-4.35635 -1.499334,-1.10654 -3.301335,-2.32144 -4.004435,-2.69975 -2.572732,-1.38428 -7.377614,-5.86921 -8.394384,-7.83543 -0.197466,-0.38184 -0.750435,-1.78933 -1.228859,-3.12775 l -0.869862,-2.43351 -7.4e-5,-22.84251 -7.4e-5,-22.84253 -0.929339,-0.29038 c -0.511136,-0.15971 -1.542703,-0.65729 -2.29237,-1.10571 -1.984448,-1.18704 -12.415472,-7.06835 -12.536336,-7.06835 -0.05649,0 -0.102673,4.89485 -0.102673,10.87743 l 0,10.87743 1.102444,4.67351 c 0.60635,2.57043 1.264198,5.11959 1.461888,5.6648 0.750409,2.06961 10.596421,26.71724 10.972023,27.46638 0.216622,0.43204 2.974999,5.23911 6.12972,10.68237 l 5.735855,9.89685 5.339512,5.59213 c 3.085777,3.2318 5.963059,6.01342 6.816837,6.59023 1.24695,0.84242 2.656026,1.35515 9.034291,3.28735 8.80074,2.66607 15.135213,4.73346 15.487271,5.05463 0.254939,0.23256 0.504816,-21.8047 0.250157,-22.05937 z m 83.352118,-0.29192 6.03344,-1.48698 4.00341,-2.13514 c 2.2019,-1.17433 5.47424,-3.03528 7.2719,-4.13545 l 3.26845,-2.0003 0.73427,-1.6262 c 0.40386,-0.8944 1.53198,-4.66689 2.50689,-8.38329 2.11221,-8.05159 2.23158,-9.10921 2.23733,-19.822 l 0.004,-7.49667 -16.23246,0 -16.23245,0 0,24.28672 c 0,13.3577 0.0836,24.28663 0.18587,24.2865 0.10223,-1.1e-4 2.90093,-0.66935 6.21931,-1.48719 l 4e-5,0 z m -82.982713,-38.76766 0,-23.40306 -12.577056,-0.0859 -12.577054,-0.0859 -2.808611,-1.04557 c -1.544735,-0.57507 -2.910863,-1.04557 -3.03584,-1.04557 -0.135858,0 -0.22485,7.69931 -0.221332,19.14438 l 0.0059,19.14438 1.662525,1.11521 c 0.914395,0.61336 3.170036,2.23249 5.012532,3.59806 5.127572,3.80032 4.855858,3.70832 14.625985,4.95227 4.566154,0.58137 8.664537,1.07003 9.107525,1.08592 l 0.805424,0.0289 0,-23.40306 2e-6,-6e-5 z M 204.64954,139.67728 c 6.51142,-1.29455 7.52462,-1.56504 10.78032,-2.87804 6.39376,-2.57854 5.73126,-2.13451 13.25858,-8.88584 3.81648,-3.42303 7.33865,-6.70204 7.82702,-7.28667 0.48838,-0.58463 1.07386,-1.61254 1.30106,-2.28427 0.68264,-2.01806 0.54281,-7.07729 -0.45252,-16.37551 l -0.86564,-8.086666 -2.74292,-6.71246 c -1.50863,-3.691855 -3.02154,-7.262287 -3.36208,-7.93431 -0.74833,-1.476739 -5.4997,-9.347978 -5.92313,-9.812406 -0.16552,-0.181556 -2.18368,-0.657732 -4.48479,-1.058169 C 208.10975,66.296343 198.14788,64.690222 195.60397,64.432 l -2.84997,-0.289291 -7.68254,1.610811 c -4.22539,0.885951 -7.90558,1.69121 -8.17818,1.789468 -1.41034,0.508348 -7.84117,3.216488 -8.87347,3.736787 -0.65503,0.330136 -4.28951,2.641754 -8.07666,5.136933 l -6.88572,4.536674 -0.15547,2.016237 c -0.42718,5.539673 -2.95394,24.595171 -3.53791,26.681201 -0.34344,1.22673 -2.42433,6.3403 -4.62422,11.36347 -3.25234,7.42624 -3.93306,9.17341 -3.64259,9.34889 0.19648,0.11869 0.77648,0.46964 1.28891,0.77987 0.51239,0.31025 3.68206,2.45305 7.04369,4.76178 3.79711,2.60782 6.68252,4.41151 7.61826,4.76219 l 1.50622,0.56449 19.45417,-0.0627 19.45416,-0.0627 7.18689,-1.42883 z m -16.48028,-25.1863 c -4.34926,-0.21234 -5.2498,-0.44808 -8.39394,-2.1974 -3.414,-1.89943 -5.90683,-5.04541 -6.95344,-8.77528 -0.4099,-1.46085 -0.51334,-2.54277 -0.51334,-5.369827 0,-5.818377 1.20799,-9.378413 4.20103,-12.380759 1.73582,-1.741204 4.95762,-3.673984 6.88569,-4.130755 2.96196,-0.701703 7.25273,-0.955843 10.93254,-0.647531 1.90046,0.159227 3.92736,0.456029 4.50424,0.659561 2.20348,0.777429 4.60328,2.348663 6.69405,4.3828 3.66108,3.561894 4.32606,5.63734 4.14621,12.94057 -0.10359,4.206231 -0.15563,4.606461 -0.84347,6.485711 -1.9487,5.32399 -7.63748,8.98724 -14.21615,9.15435 -1.43119,0.0364 -4.33072,-0.0182 -6.44342,-0.12144 z m -57.94035,1.35544 4.45756,-10.16077 1.31695,-10.532511 c 0.72432,-5.792882 1.39664,-11.931566 1.49403,-13.641524 l 0.17711,-3.10902 -4.75367,-12.690456 c -5.9154,-15.791778 -5.37495,-14.499049 -10.62123,-25.405841 -4.30288,-8.945537 -4.42706,-9.166837 -6.37103,-11.35377 l -1.98258,-2.230396 -4.95648,-2.596391 -4.95648,-2.596384 -2.58372,0.53566 c -3.658029,0.758385 -4.867137,1.130091 -12.466431,3.83248 -8.277657,2.94363 -9.450238,3.43074 -18.153658,7.541524 -6.799911,3.211705 -7.086122,3.377413 -14.745511,8.537121 l -7.811007,5.261839 -5.771864,6.176227 -5.771838,6.176228 -4.788599,7.682532 c -2.633722,4.225395 -4.901111,7.90558 -5.038678,8.178182 -0.137543,0.272609 -1.504389,4.563791 -3.037427,9.535954 -1.533062,4.97217 -2.841769,9.182075 -2.90826,9.355348 -0.06649,0.173273 0.05561,0.315037 0.271342,0.315037 0.21573,0 2.131879,-2.091014 4.258132,-4.646693 2.126253,-2.555685 4.443008,-5.120061 5.148365,-5.698619 0.705354,-0.578564 1.449743,-1.20457 1.654197,-1.391126 0.722976,-0.659683 6.325627,-3.700071 7.676067,-4.165571 2.248703,-0.775128 12.803813,-2.913997 15.848029,-3.211414 3.860004,-0.377121 5.753625,-0.192179 11.626726,1.135517 4.262323,0.963561 5.467191,1.342394 7.80645,2.454455 5.595934,2.660254 6.837256,4.342596 8.711124,11.806095 1.236566,4.925118 1.130847,4.428725 2.137652,10.036857 0.872393,4.85944 0.859828,6.04868 -0.136574,12.91129 -0.334486,2.3037 -0.732267,5.19143 -0.883935,6.41715 -0.231197,1.86816 -0.626798,3.19024 -1.651005,5.51728 -0.109386,0.2486 4.134817,0.29843 21.105883,0.24782 l 21.24283,-0.0633 4.45753,-10.16077 0,-4e-5 z M 155.08,61.187311 c 2.91895,-1.921054 6.12153,-3.831413 7.11681,-4.245244 0.99531,-0.413831 3.64973,-1.533823 5.89873,-2.488869 3.90828,-1.659666 4.40139,-1.801157 11.15206,-3.199872 3.88464,-0.804881 8.0109,-1.691326 9.16948,-1.969886 1.29555,-0.311486 2.89168,-0.500332 4.14607,-0.490557 2.64664,0.02065 9.84968,0.847987 14.15207,1.625521 1.86254,0.336599 3.69736,0.668094 4.0774,0.736659 1.92861,0.347958 0.7935,-1.257068 -8.0626,-11.400547 l -6.06712,-6.949084 -4.92832,-3.611681 c -7.1003,-5.203373 -9.20988,-6.463991 -12.11523,-7.239673 -0.81783,-0.218345 -4.83258,-0.92545 -8.92167,-1.571342 l -7.4347,-1.174341 -15.11726,-0.07933 c -8.31449,-0.04361 -16.28489,-0.04659 -17.71204,-0.0066 l -2.59476,0.07272 1.26846,1.399727 c 1.70726,1.883956 1.80768,2.070311 7.47166,13.865576 4.43816,9.242485 5.34076,11.35235 8.72588,20.397065 2.8352,7.575406 3.86188,10.055156 4.1218,9.955419 0.19035,-0.07306 2.73434,-1.704593 5.65328,-3.625647 l 0,-1.4e-5 z"
     id="path2828"
     style="fill:#000000" />
  <path
     d="m 79.804146,225.22779 c -0.851897,-0.3127 -4.598295,-1.52653 -8.325318,-2.69743 -9.753326,-3.06413 -12.064431,-3.82853 -13.26246,-4.3865 -0.878461,-0.40915 -2.106081,-1.54426 -7.013486,-6.48505 -5.580791,-5.61874 -6.018646,-6.11063 -7.080893,-7.95464 -0.622732,-1.08105 -3.3337,-5.78415 -6.024347,-10.45132 l -4.892115,-8.48578 -5.471229,-13.68632 -5.471229,-13.68632 -1.287766,-5.22727 -1.287766,-5.22728 0,-5.61152 c 2.22e-4,-3.08634 0.05732,-7.88134 0.12691,-10.65556 l 0.126539,-5.04401 6.914679,3.89254 c 3.803077,2.14091 7.274542,4.00036 7.71438,4.13214 l 0.799678,0.23959 0,22.85486 0,22.85486 1.087078,2.83939 c 0.5979,1.56168 1.312252,3.14434 1.587484,3.51705 1.54932,2.09814 5.119443,5.29898 7.877325,7.06256 0.958359,0.61285 3.015891,2.01802 4.572274,3.1226 3.362224,2.38621 7.879827,4.70723 10.127415,5.20316 0.311316,0.0687 3.752769,0.50581 7.647692,0.97137 3.894924,0.46557 8.534479,1.04738 10.310114,1.29293 l 3.22842,0.44644 0.135564,1.80826 c 0.14361,1.91554 -0.04221,17.49647 -0.227304,19.05716 -0.06,0.5058 -0.16622,0.90906 -0.236107,0.89614 -0.06986,-0.0129 -0.824037,-0.27936 -1.675928,-0.59205 l 0,0 z"
     id="path3608"
     style="fill:#5cfecc;fill-opacity:1;fill-rule:nonzero;stroke:none" />
  <path
     d="m 148.95967,63.854337 c -0.20653,-0.40816 -1.57189,-3.878624 -3.03411,-7.712152 -3.03611,-7.959861 -3.94155,-10.214024 -5.52166,-13.746469 -2.35083,-5.255456 -8.41256,-17.74716 -9.53617,-19.651642 -0.2199,-0.372705 -0.80033,-1.156836 -1.28985,-1.742514 -0.48953,-0.585678 -1.011,-1.219924 -1.15883,-1.409441 -0.25734,-0.329917 0.50054,-0.341892 17.81407,-0.281379 l 18.08281,0.0632 5.80837,0.991298 c 8.39108,1.432088 9.14871,1.582672 10.64779,2.116292 2.34444,0.834538 4.8126,2.393321 11.54828,7.293393 4.01435,2.920351 4.29493,3.16781 6.68787,5.898394 9.79021,11.171604 12.78512,14.87625 12.36549,15.295878 -0.0635,0.06344 -2.09554,-0.206784 -4.51576,-0.600496 -8.46975,-1.377831 -13.61805,-1.852686 -16.32403,-1.505653 -2.23862,0.287087 -16.63763,3.388786 -18.57942,4.002195 -2.1027,0.664251 -9.05372,3.60905 -11.12361,4.712536 -0.95838,0.510918 -3.82906,2.257726 -6.37929,3.881791 -2.55023,1.624059 -4.74468,2.994251 -4.87657,3.04486 -0.13544,0.05196 -0.40327,-0.230965 -0.61538,-0.650083 l 0,0 z"
     id="path3610"
     style="fill:#5cfecc;fill-opacity:1;fill-rule:nonzero;stroke:none" />
  <path
     d="m 159.81445,236.54387 -0.82286,-0.0741 0,-7.63285 0,-7.63287 0.43564,-0.10353 c 0.23959,-0.057 4.05133,-1.00385 8.47054,-2.10422 7.82777,-1.94911 8.11226,-2.03659 11.03589,-3.3934 4.06887,-1.88829 7.96122,-4.0094 12.32379,-6.71575 5.68165,-3.52465 5.79097,-3.60869 6.87091,-5.28154 1.81471,-2.81103 3.35596,-6.2675 4.32893,-9.70827 1.79816,-6.35886 3.17531,-11.37533 3.4581,-12.59659 0.42966,-1.8556 0.67414,-5.7461 0.79616,-12.66981 0.20612,-11.69677 0.29817,-13.62483 0.65563,-13.73347 0.17485,-0.0532 2.06041,-0.41271 4.19015,-0.79904 2.12974,-0.38632 4.61281,-0.95289 5.51795,-1.25905 2.43904,-0.825 12.10621,-4.90886 12.93379,-5.46384 0.39373,-0.26403 2.01241,-1.64481 3.59705,-3.0684 1.58465,-1.42356 3.14555,-2.80194 3.46867,-3.06306 l 0.58751,-0.47474 -0.12853,5.70227 c -0.11557,5.12696 -0.51649,11.97509 -0.82122,14.02761 -0.146,0.9833 -0.76438,1.92769 -6.82246,10.41912 l -4.94703,6.9341 -2.91742,2.45127 c -5.64465,4.74272 -8.15552,6.91305 -9.22418,7.97316 -2.07055,2.05399 -4.24367,6.28692 -7.02207,13.678 -2.14505,5.70626 -2.57783,6.61966 -4.87977,10.299 -3.9644,6.33656 -6.52554,9.96207 -7.70495,10.90702 -0.62214,0.49846 -4.14359,3.06411 -7.82543,5.70144 l -6.69427,4.79516 -2.2424,0.54769 c -1.23333,0.30124 -4.19815,0.98257 -6.58851,1.51408 -4.06198,0.90322 -4.50496,0.96418 -6.77643,0.93257 -1.33667,-0.0186 -2.80061,-0.0672 -3.25318,-0.10794 z"
     id="path3612"
     style="fill:#5cfecc;fill-opacity:1;fill-rule:nonzero;stroke:none" />
  <path
     d="m 92.084501,125.31106 -7.857649,-0.3228 0.899115,-3.08849 c 2.081452,-7.14989 2.079843,-19.13426 -0.0038,-27.889124 -1.105865,-4.646671 -2.659771,-9.439149 -3.453118,-10.64995 -2.078465,-3.172138 -8.665197,-6.15125 -16.613912,-7.514303 -5.958584,-1.021784 -8.114532,-0.951879 -15.742857,0.510454 -10.841497,2.078291 -15.197321,4.181688 -21.889015,10.570053 -2.852607,2.7233 -4.941744,4.244818 -4.642528,3.381151 0.299217,-0.863667 1.44512,-4.487694 2.546452,-8.053392 C 27.824553,74.169296 34.606551,63.171611 42.508553,54.39345 52.950059,42.79421 73.076408,31.340585 95.062727,24.485604 l 8.465023,-2.639259 5.2551,2.792701 c 2.89031,1.535985 6.03377,3.874826 6.98546,5.197425 3.42167,4.755171 10.47869,19.992974 15.96501,34.472295 l 5.59024,14.753555 -1.51375,13.141245 c -1.35004,11.719994 -1.9747,14.181554 -5.77585,22.760144 -3.7515,8.46658 -4.59932,9.69168 -7.07711,10.22651 -2.91127,0.62838 -17.15998,0.68416 -30.872349,0.12084 z"
     id="path3626"
     style="fill:#ffffff;fill-opacity:1;fill-rule:nonzero;stroke:none" />
  <path
     d="m 149.96041,135.54005 c -4.23231,-2.70241 -7.83628,-5.04384 -8.00881,-5.20318 -0.17254,-0.15933 1.62251,-5.19845 3.98899,-11.19804 3.6385,-9.22446 4.56208,-13.00282 5.983,-24.476459 l 1.68031,-13.56811 7.79715,-4.887131 c 9.24911,-5.79719 14.87314,-8.103448 24.69845,-10.128149 6.98658,-1.439724 7.8657,-1.405913 21.64252,0.83237 7.89806,1.283179 14.67146,2.3397 15.05198,2.347825 1.25991,0.0269 7.0788,9.999973 10.13863,17.376711 3.16297,7.625423 5.75996,25.127113 4.48327,30.213843 -0.86017,3.42716 -14.33316,15.7609 -20.13219,18.42983 -8.84393,4.07031 -17.21837,5.17423 -39.25091,5.17409 l -20.37727,-1.3e-4 -7.69512,-4.91347 z m 52.86801,-22.82543 c 5.11693,-2.98845 7.2501,-7.27943 7.2501,-14.583982 0,-7.375866 -2.01253,-11.34042 -7.71801,-15.204 -3.01103,-2.038981 -4.20507,-2.232669 -12.00073,-1.94667 -7.2104,0.264529 -9.18182,0.691926 -11.79766,2.557686 -4.73219,3.375257 -6.42659,7.305136 -6.39633,14.835258 0.0281,6.980848 1.35495,9.773888 6.45072,13.578428 4.98556,3.72226 18.42026,4.14579 24.21191,0.76328 l 0,0 z"
     id="path3628"
     style="fill:#ffffff;fill-opacity:1;fill-rule:nonzero;stroke:none" />
  <path
     d="m 159.09837,180.75724 0,-23.95133 15.87118,0 15.87117,0 -0.0148,8.89748 c -0.0132,7.94652 -1.02467,13.8109 -4.4012,25.51733 -0.87621,3.03781 -12.59471,9.6985 -20.75683,11.79799 l -6.56956,1.68985 0,-23.95132 z"
     id="path3630"
     style="fill:#ffffff;fill-opacity:1;fill-rule:nonzero;stroke:none" />
  <path
     d="m 117.97758,235.92248 -19.478265,-0.28145 0,-46.63173 0,-46.63174 14.668815,0.0732 c 15.63503,0.078 17.71462,0.51083 25.06678,5.21722 l 4.50789,2.88567 0.002,43.04456 0.002,43.04456 -2.6452,-0.21941 c -1.45485,-0.12067 -11.41041,-0.34606 -22.12346,-0.50086 l 0,0 z"
     id="path3632"
     style="fill:#ffffff;fill-opacity:1;fill-rule:nonzero;stroke:none" />
  <path
     d="m 69.40293,186.2448 c -4.908286,-0.87484 -7.841401,-2.11103 -12.023621,-5.06749 l -5.531643,-3.91038 -0.261626,-18.51616 -0.261626,-18.51616 2.185405,0.53661 c 1.201973,0.29513 8.137098,0.84025 15.411389,1.21137 l 13.225983,0.67478 0,22.4645 0,22.46451 -3.126142,-0.0922 c -1.719377,-0.0507 -6.047531,-0.61293 -9.618119,-1.24935 z"
     id="path3634"
     style="fill:#ffffff;fill-opacity:1;fill-rule:nonzero;stroke:none" />
</svg>
