<svg xmlns="http://www.w3.org/2000/svg" id="svg2816" viewBox="0 0 256 256"><path id="path2828" fill="#000" d="M81.522 251.613c-.09-.091-.165-1.762-.165-3.714v-3.548l-2.788-2.083c-2.745-2.052-2.852-2.104-7-3.454a714 714 0 0 0-10.808-3.37c-8.311-2.519-11.459-3.962-14.203-6.512-.556-.516-1.082-.94-1.168-.942-.345-.007-12.083-12.445-12.905-13.675-.713-1.067-11.044-18.688-12.79-21.814-.252-.451-3.17-7.61-6.486-15.907-5.75-14.394-6.085-15.322-7.276-20.198l-.987-5.242-.34-27.755.445-27.624 1.356-6.327c1.034-3.336 1.978-6.512 2.097-7.057.12-.546.554-1.996.966-3.222a416 416 0 0 0 1.655-5.08c.498-1.568 1.2-3.576 1.559-4.462.738-1.823 9.873-16.619 11.781-19.082 1.73-2.234 10.413-11.613 12.891-13.926 2.104-1.963 14.981-10.902 17.36-12.051a26 26 0 0 0 2.506-1.438c1.344-.89 16.27-8.024 16.79-8.024a.9.9 0 0 0 .542-.232c.28-.275 17.595-6.47 18.35-6.565.286-.036.637-.137.78-.226.302-.187 15.388-3.376 16.669-3.524a77 77 0 0 0 2.354-.332c.842-.13 12.426-.24 26.696-.252l25.21-.021 9.114 1.362c5.013.75 9.8 1.594 10.637 1.877.838.283 1.69.54 1.892.569.359.052 6.104 3.12 7.873 4.204.483.296 3.327 2.345 6.32 4.553 4.57 3.373 5.918 4.522 8.434 7.187 2.74 2.901 11.031 12.277 12.907 14.594.72.89 8.021 10.865 9.879 13.498 1.156 1.638 11.71 18.945 12.536 20.555 1.079 2.106 6.675 16.033 7.17 17.844.954 3.491 1.036 7.138.936 41.758-.104 36.448.019 33.762-1.666 36.27-.49.729-1.513 2.29-2.272 3.469-1.64 2.546-10.943 15.413-12.005 16.605-.407.457-3.312 2.988-6.455 5.625l-5.715 4.794-1.26 2.429c-.693 1.336-2.288 5.273-3.545 8.749-2.373 6.564-3.057 7.955-5.54 11.276-.815 1.09-2.836 4.045-4.49 6.567-2.227 3.393-3.424 4.96-4.605 6.031-2.124 1.927-18.08 13.27-19.81 14.084-.787.37-4.403 1.337-8.55 2.287l-7.187 1.645-43.762-.004c-24.069-.002-43.836-.079-43.927-.17m90.547-16.27 6.575-1.544 7.55-5.364c4.154-2.95 7.79-5.625 8.08-5.942.705-.768 7.701-11.541 8.826-13.589.487-.886 1.684-3.833 2.66-6.55s2.099-5.616 2.494-6.443c1.717-3.591 3.291-6.277 4.267-7.28.578-.593 3.6-3.216 6.718-5.83l5.668-4.75 4.139-5.7c2.276-3.136 4.936-6.885 5.91-8.333l1.773-2.632.388-3.935c.213-2.165.453-6.89.533-10.503l.145-6.567-.96.881c-3.107 2.852-6.029 5.43-6.784 5.984-.477.35-2.763 1.39-5.08 2.31s-5.184 2.107-6.371 2.639c-1.572.703-2.952 1.097-5.08 1.448-3.576.59-6.517 1.154-6.634 1.272-.049.048-.14 4.939-.204 10.868-.12 11.047-.334 14.128-1.165 16.728-.261.818-1.216 4.275-2.121 7.683-.906 3.407-1.732 6.307-1.837 6.443s-.333.694-.508 1.24c-.338 1.057-2.795 5.52-3.748 6.81-.338.457-2.05 1.648-4.172 2.901-1.98 1.17-4.13 2.503-4.78 2.964-1.812 1.282-11.253 5.997-13.069 6.526-.886.258-4.928 1.268-8.983 2.244l-7.373 1.775v15.548l3.036.078c1.67.043 3.147.097 3.284.12.136.024 3.206-.651 6.823-1.5m-28.512-41.618c-.002-23.614-.086-43.055-.186-43.202s-2.133-1.595-4.519-3.219c-4.14-2.818-4.517-3.017-8.302-4.376l-3.965-1.425-14.436-.004-14.435-.004v94.912l12.7.067c6.986.037 17.302.093 22.924.126l10.223.06zM81.98 203.991c-.137-.137-13.35-1.813-18.616-2.36-3.07-.32-3.405-.41-6.072-1.641-3.478-1.605-3.89-1.852-7.283-4.356-1.5-1.107-3.302-2.322-4.005-2.7-2.573-1.384-7.378-5.87-8.394-7.836-.198-.381-.75-1.789-1.23-3.127l-.869-2.434v-45.685l-.93-.29c-.51-.16-1.542-.658-2.292-1.106-1.984-1.187-12.415-7.068-12.536-7.068-.057 0-.103 4.894-.103 10.877v10.877l1.103 4.674c.606 2.57 1.264 5.12 1.461 5.665.75 2.07 10.597 26.717 10.972 27.466.217.432 2.975 5.24 6.13 10.683l5.736 9.896 5.34 5.593c3.085 3.231 5.963 6.013 6.816 6.59 1.247.842 2.656 1.355 9.035 3.287 8.8 2.666 15.135 4.734 15.487 5.055.255.232.505-21.805.25-22.06m83.352-.292 6.034-1.487 4.003-2.135c2.202-1.174 5.474-3.035 7.272-4.135l3.268-2 .735-1.627c.404-.894 1.532-4.667 2.507-8.383 2.112-8.052 2.231-9.11 2.237-19.822l.004-7.497h-32.465V180.9c0 13.358.084 24.287.186 24.287s2.9-.67 6.22-1.488M82.35 164.932v-23.403l-12.578-.086-12.577-.086-2.808-1.046c-1.545-.575-2.911-1.045-3.036-1.045-.136 0-.225 7.7-.221 19.144l.006 19.145 1.662 1.115c.914.613 3.17 2.232 5.013 3.598 5.127 3.8 4.855 3.708 14.626 4.952 4.566.581 8.664 1.07 9.107 1.086l.806.029zm122.3-25.255c6.512-1.294 7.525-1.565 10.78-2.878 6.395-2.578 5.732-2.134 13.26-8.886 3.816-3.423 7.338-6.702 7.826-7.286.489-.585 1.074-1.613 1.302-2.285.682-2.018.542-7.077-.453-16.375l-.866-8.087-2.743-6.712c-1.508-3.692-3.021-7.262-3.362-7.934-.748-1.477-5.5-9.348-5.923-9.813-.165-.181-2.183-.658-4.485-1.058-11.875-2.067-21.837-3.673-24.381-3.931l-2.85-.29-7.683 1.612c-4.225.885-7.905 1.69-8.178 1.789-1.41.508-7.84 3.216-8.873 3.737-.655.33-4.29 2.642-8.077 5.137l-6.886 4.536-.155 2.017c-.427 5.54-2.954 24.595-3.538 26.68-.343 1.228-2.424 6.341-4.624 11.364-3.253 7.427-3.933 9.174-3.643 9.35l1.29.78c.512.31 3.681 2.452 7.043 4.76 3.797 2.609 6.682 4.412 7.618 4.763l1.506.565 19.454-.063 19.455-.063zm-16.48-25.186c-4.349-.212-5.25-.448-8.394-2.197a14.53 14.53 0 0 1-6.953-8.776c-.41-1.46-.513-2.542-.513-5.37 0-5.818 1.208-9.378 4.2-12.38 1.736-1.741 4.958-3.674 6.886-4.131 2.962-.702 7.253-.956 10.933-.648 1.9.16 3.927.456 4.504.66 2.204.777 4.603 2.349 6.694 4.383 3.661 3.562 4.326 5.637 4.146 12.94-.103 4.207-.155 4.607-.843 6.486-1.949 5.324-7.638 8.987-14.216 9.154-1.432.037-4.331-.018-6.444-.121m-57.94 1.355 4.457-10.16 1.317-10.533c.725-5.793 1.397-11.931 1.494-13.641l.178-3.11-4.754-12.69c-5.916-15.792-5.375-14.499-10.621-25.406-4.303-8.945-4.427-9.167-6.371-11.353l-1.983-2.23-4.956-2.597-4.957-2.597-2.584.536c-3.658.758-4.867 1.13-12.466 3.832-8.278 2.944-9.45 3.431-18.154 7.542-6.8 3.212-7.086 3.377-14.745 8.537l-7.811 5.262-5.772 6.176-5.772 6.176-4.789 7.683c-2.633 4.225-4.9 7.906-5.038 8.178s-1.505 4.564-3.038 9.536-2.841 9.182-2.908 9.355.056.315.271.315 2.132-2.09 4.259-4.646c2.126-2.556 4.443-5.12 5.148-5.699a66 66 0 0 0 1.654-1.39c.723-.66 6.326-3.701 7.676-4.167 2.249-.775 12.804-2.914 15.848-3.21 3.86-.378 5.754-.193 11.627 1.135 4.262.963 5.467 1.342 7.806 2.454 5.596 2.66 6.838 4.343 8.712 11.806 1.236 4.925 1.13 4.429 2.137 10.037.873 4.86.86 6.049-.136 12.911a405 405 0 0 0-.884 6.417c-.232 1.869-.627 3.19-1.651 5.518-.11.248 4.134.298 21.106.248l21.242-.064zm24.851-54.659c2.919-1.92 6.122-3.831 7.117-4.245s3.65-1.534 5.899-2.489c3.908-1.66 4.4-1.801 11.152-3.2 3.884-.805 8.01-1.691 9.17-1.97 1.295-.311 2.89-.5 4.145-.49 2.647.02 9.85.848 14.152 1.625l4.078.737c1.928.348.793-1.257-8.063-11.4l-6.067-6.95-4.928-3.611c-7.1-5.204-9.21-6.464-12.116-7.24-.817-.218-4.832-.925-8.921-1.571l-7.435-1.175-15.117-.079c-8.315-.044-16.285-.047-17.712-.007l-2.595.073 1.268 1.4c1.708 1.884 1.808 2.07 7.472 13.865 4.438 9.243 5.34 11.353 8.726 20.398 2.835 7.575 3.862 10.055 4.122 9.955.19-.073 2.734-1.705 5.653-3.626"/><path id="path3608" fill="#5cfecc" fill-opacity="1" fill-rule="nonzero" stroke="none" d="M79.804 225.228c-.852-.313-4.598-1.527-8.325-2.698-9.753-3.064-12.065-3.828-13.263-4.386-.878-.41-2.106-1.544-7.013-6.485-5.58-5.619-6.019-6.11-7.081-7.955l-6.024-10.451-4.892-8.486-5.472-13.686-5.47-13.687-1.289-5.227-1.287-5.227v-5.612c0-3.086.057-7.881.126-10.655l.127-5.044 6.915 3.892c3.803 2.141 7.274 4 7.714 4.132l.8.24v45.71l1.087 2.84c.598 1.56 1.312 3.144 1.587 3.516 1.55 2.098 5.12 5.3 7.878 7.063.958.613 3.016 2.018 4.572 3.122 3.362 2.387 7.88 4.708 10.127 5.204.312.068 3.753.505 7.648.97 3.895.466 8.534 1.048 10.31 1.294l3.229.446.135 1.809c.144 1.915-.042 17.496-.227 19.057-.06.505-.166.909-.236.896s-.824-.28-1.676-.592"/><path id="path3610" fill="#5cfecc" fill-opacity="1" fill-rule="nonzero" stroke="none" d="M148.96 63.854c-.207-.408-1.572-3.878-3.034-7.712-3.037-7.96-3.942-10.214-5.522-13.746-2.35-5.256-8.413-17.747-9.536-19.652-.22-.373-.8-1.157-1.29-1.742a86 86 0 0 1-1.159-1.41c-.257-.33.5-.342 17.814-.281l18.083.063 5.808.991c8.391 1.432 9.149 1.583 10.648 2.117 2.345.834 4.813 2.393 11.548 7.293 4.015 2.92 4.295 3.168 6.688 5.898 9.79 11.172 12.785 14.877 12.366 15.296-.064.064-2.096-.207-4.516-.6-8.47-1.378-13.618-1.853-16.324-1.506-2.239.287-16.638 3.389-18.58 4.002-2.102.664-9.053 3.61-11.123 4.713-.958.51-3.83 2.258-6.38 3.882s-4.744 2.994-4.876 3.044c-.135.052-.403-.23-.615-.65"/><path id="path3612" fill="#5cfecc" fill-opacity="1" fill-rule="nonzero" stroke="none" d="m159.814 236.544-.822-.074v-15.266l.435-.103c.24-.057 4.052-1.004 8.47-2.105 7.829-1.949 8.113-2.036 11.037-3.393 4.069-1.888 7.96-4.01 12.323-6.716 5.682-3.524 5.791-3.609 6.871-5.281 1.815-2.811 3.356-6.268 4.33-9.709 1.797-6.359 3.175-11.375 3.457-12.596.43-1.856.675-5.746.797-12.67.206-11.697.298-13.625.655-13.734.175-.053 2.06-.412 4.19-.799 2.13-.386 4.613-.952 5.518-1.259 2.44-.825 12.106-4.908 12.934-5.463.394-.264 2.012-1.645 3.597-3.069s3.146-2.802 3.469-3.063l.587-.475-.128 5.703c-.116 5.127-.517 11.975-.821 14.027-.146.984-.765 1.928-6.823 10.42l-4.947 6.933-2.917 2.452c-5.645 4.742-8.156 6.913-9.225 7.973-2.07 2.054-4.243 6.287-7.022 13.678-2.145 5.706-2.577 6.62-4.88 10.299-3.964 6.336-6.525 9.962-7.704 10.907-.622.498-4.144 3.064-7.826 5.701l-6.694 4.795-2.242.548a431 431 0 0 1-6.589 1.514c-4.062.903-4.505.964-6.776.933-1.337-.019-2.801-.067-3.254-.108"/><path id="path3626" fill="#fff" fill-opacity="1" fill-rule="nonzero" stroke="none" d="m92.085 125.311-7.858-.323.899-3.088c2.081-7.15 2.08-19.134-.004-27.89-1.106-4.646-2.66-9.439-3.453-10.65-2.078-3.171-8.665-6.15-16.614-7.514-5.958-1.021-8.114-.951-15.743.51-10.841 2.08-15.197 4.183-21.889 10.57-2.852 2.724-4.941 4.246-4.642 3.382s1.445-4.488 2.546-8.053c2.498-8.086 9.28-19.083 17.182-27.862C52.95 42.794 73.076 31.341 95.063 24.486l8.465-2.64 5.255 2.793c2.89 1.536 6.034 3.875 6.985 5.197 3.422 4.756 10.479 19.993 15.965 34.473l5.59 14.753-1.513 13.142c-1.35 11.72-1.975 14.181-5.776 22.76-3.752 8.466-4.6 9.691-7.077 10.226-2.911.629-17.16.684-30.872.121"/><path id="path3628" fill="#fff" fill-opacity="1" fill-rule="nonzero" stroke="none" d="M149.96 135.54c-4.232-2.702-7.836-5.044-8.008-5.203-.173-.16 1.622-5.199 3.989-11.198 3.638-9.225 4.562-13.003 5.983-24.477l1.68-13.568 7.797-4.887c9.25-5.797 14.873-8.103 24.698-10.128 6.987-1.44 7.866-1.406 21.643.832 7.898 1.284 14.671 2.34 15.052 2.348 1.26.027 7.079 10 10.139 17.377 3.163 7.625 5.76 25.127 4.483 30.214-.86 3.427-14.333 15.76-20.132 18.43-8.844 4.07-17.219 5.174-39.251 5.174h-20.377zm52.868-22.825c5.117-2.989 7.25-7.28 7.25-14.584 0-7.376-2.012-11.34-7.717-15.204-3.012-2.04-4.206-2.233-12.001-1.947-7.21.264-9.182.692-11.798 2.558-4.732 3.375-6.426 7.305-6.396 14.835.028 6.98 1.355 9.774 6.45 13.578 4.986 3.723 18.42 4.146 24.212.764"/><path id="path3630" fill="#fff" fill-opacity="1" fill-rule="nonzero" stroke="none" d="M159.098 180.757v-23.951h31.742l-.014 8.897c-.013 7.947-1.025 13.811-4.401 25.518-.876 3.038-12.595 9.698-20.757 11.798l-6.57 1.69z"/><path id="path3632" fill="#fff" fill-opacity="1" fill-rule="nonzero" stroke="none" d="m117.978 235.922-19.479-.281v-93.263l14.67.073c15.634.078 17.714.51 25.066 5.217l4.508 2.886.002 43.044.002 43.045-2.645-.22c-1.455-.12-11.41-.346-22.124-.5z"/><path id="path3634" fill="#fff" fill-opacity="1" fill-rule="nonzero" stroke="none" d="M69.403 186.245c-4.908-.875-7.841-2.111-12.024-5.068l-5.531-3.91-.262-18.516-.262-18.516 2.186.536c1.202.295 8.137.84 15.411 1.212l13.226.674v44.929l-3.126-.092c-1.72-.05-6.047-.613-9.618-1.25"/></svg>